<svg clip-rule="evenodd" fill-rule="evenodd" stroke-linejoin="round" stroke-miterlimit="2" viewBox="0 0 560 400" xmlns="http://www.w3.org/2000/svg"><path d="m29.447 10.507h-9.381c.43 1.807 1.859 3.173 3.717 3.173 1.047 0 2.074-.462 2.759-1.255l2.269.05c-.998 1.948-2.905 3.193-5.116 3.193-3.228 0-5.762-2.872-5.762-6.125 0-3.353 2.495-6.104 5.811-6.104 3.209 0 5.772 2.711 5.772 5.984-.01.351-.03.733-.069 1.084zm-5.732-5.08c-1.839 0-3.541 1.486-3.659 3.404h7.317c-.117-1.908-1.809-3.404-3.658-3.404zm15.245 9.859v-6.262c0-1.951-.578-3.604-2.833-3.604-2.088 0-2.99 1.643-2.99 3.584v6.282h-2.127v-11.528h1.99v1.224h.039c.824-1.105 2.01-1.543 3.324-1.543 1.617 0 3.137.647 4.019 2.061.549.876.716 1.931.716 2.956v6.83zm13.248.093v-1.64h-.04c-.944 1.332-2.448 1.929-4.031 1.929-3.411 0-5.919-2.575-5.919-6.005 0-3.45 2.468-6.114 5.919-6.114 1.436 0 2.96.557 3.864 1.72h.04v-5.269h2.133v15.379zm-3.953-9.852c-2.261 0-3.903 1.869-3.903 4.116 0 2.157 1.711 4.056 3.884 4.056 2.222 0 3.962-1.829 3.962-4.056.01-2.306-1.613-4.116-3.943-4.116zm12.054 13.58h-2.178l1.636-4.056-4.472-11.23h2.265l3.3 8.895 3.378-8.895h2.265zm12.359-3.439c-3.363 0-6.165-2.749-6.165-6.19 0-3.421 2.871-6.039 6.165-6.039 3.344 0 6.165 2.639 6.165 6.079 0 3.321-2.703 6.15-6.165 6.15zm0-10.232c-2.229 0-4.024 1.845-4.024 4.112 0 2.268 1.795 4.133 4.024 4.133 2.249 0 4.024-1.885 4.024-4.153-.01-2.267-1.805-4.092-4.024-4.092zm7.659 9.85v-15.286h2.242v15.286zm-78.241-2.411c-.097-.367-.145-1.071-.145-2.103v-5.098h-1.941v-1.994h2.028v-3.68h2.087v3.69h3.532v1.994h-3.542v5.624c0 1.319.553 1.984 1.621 1.984.786 0 1.62-.268 2.494-.794v2.063c-.845.477-1.776.725-2.766.725-1 0-1.844-.308-2.514-.903-.203-.189-.378-.387-.514-.615s-.252-.526-.34-.893zm12.902-7.35c-.727 0-1.365.352-1.895 1.047-.531.695-.796 1.518-.796 2.457v5.874h-2.209v-11.239h2.209l-.01 1.528.04-.069c1.041-1.684 2.317-1.684 3.083-1.684h.147c.668 0 1.807.392 2.75 1.253l-1.159 1.919c-.775-.724-1.502-1.086-2.16-1.086z" fill="#333" transform="matrix(4.71034 0 0 4.71034 85.5367 155)"/></svg>